<svg height="300px" width="300px" fill="#000000" xmlns="http://www.w3.org/2000/svg" xmlns:xlink="http://www.w3.org/1999/xlink" version="1.1" x="0px" y="0px" viewBox="0 0 50 50" enable-background="new 0 0 50 50" xml:space="preserve"><g display="none"><g display="inline"><path fill="#000000" stroke="#000000" stroke-width="0.5" stroke-miterlimit="10" d="M38.68,47.547    C24.668,31.8,26.033,6.751,26.033,6.751h-2.065c0,0,1.364,25.048-12.648,40.795l4.668,0.052c1.524-4.185,4.891-7.119,9.052-7.119    c4.144,0,7.698,2.91,9.233,7.067l0,0L38.68,47.547L38.68,47.547z M22.455,35.357c1.276-3.91,2.036-7.695,2.563-11.091    c-0.006-0.046,1.412,7.181,2.689,11.091H22.455z"/><rect x="21.197" y="26.467" fill="#000000" stroke="#000000" stroke-width="0.5" stroke-miterlimit="10" width="7.688" height="2.108"/><rect x="17.477" y="35.395" fill="#000000" stroke="#000000" stroke-width="0.5" stroke-miterlimit="10" width="15.003" height="2.356"/><line fill="none" stroke="#000000" stroke-width="0.5" stroke-miterlimit="10" x1="25" y1="24.487" x2="25" y2="2.667"/><rect x="23.392" y="4.451" fill="#000000" stroke="#000000" stroke-width="0.5" stroke-miterlimit="10" width="3.224" height="2.355"/></g></g><path d="M38.5,47.45c-0.03-0.03-2.85-3.391-5.75-9.601V35.16h-1.18c-0.95-2.311-1.78-4.73-2.49-7.19V25.61h-0.62  c-1.479-5.95-2.21-12.2-2.19-18.59h0.351v-2.8h-1.37V2.39h-0.5v1.82h-1.37v2.81h0.36c0.02,6.39-0.72,12.64-2.2,18.59h-0.62v2.35  c-0.7,2.46-1.54,4.88-2.49,7.2h-1.18v2.689c-2.9,6.21-5.72,9.57-5.75,9.601l-0.35,0.41h6.92v-0.25c0-3.82,3.11-6.931,6.93-6.931  c3.82,0,6.94,3.11,6.94,6.931v0.25h6.369h0.54L38.5,47.45z M25.48,28.22L27,35.16h-4.01l1.53-6.94H25.48z M31.03,35.16H27.52  l-1.529-6.94h2.64C29.31,30.59,30.12,32.92,31.03,35.16z M27.94,25.61h-2.69V7.02h0.51C25.74,13.4,26.47,19.66,27.94,25.61z   M24.24,7.02h0.51v18.59h-2.69C23.53,19.66,24.26,13.41,24.24,7.02z M21.36,28.22H24l-1.52,6.94h-3.51  C19.88,32.92,20.69,30.59,21.36,28.22z M32.43,47.36C32.3,43.38,29.02,40.18,25,40.18c-4.02,0-7.3,3.2-7.43,7.181h-5.36  c0.84-1.08,3.16-4.28,5.52-9.341h14.54c2.36,5.061,4.681,8.261,5.521,9.341H32.43z"/></svg>